@startuml
'https://plantuml.com/class-diagram

class Input{
-convertInput
}

interface convertInput

convertInput *-- Input

class Histogram{
-wordFinder
-wordCounter
-frequencySorter
-frequencyPrinter
}

interface wordFinder
interface wordCounter
interface frequencySorter
interface frequencyPrinter

wordFinder *-- Histogram
wordCounter *-- Histogram
frequencySorter *-- Histogram
frequencyPrinter *-- Histogram

enum inputTxt{
string of repeating words
}

inputTxt --> convertInput
convertInput --> wordFinder
wordFinder --> wordCounter
wordCounter --> frequencySorter
frequencySorter --> frequencyPrinter

@enduml